<svg width="241" height="173" viewBox="0 0 241 173" fill="none" xmlns="http://www.w3.org/2000/svg">
<path fill-rule="evenodd" clip-rule="evenodd" d="M185 51.5306L185 71.6733L178.577 71.6678V79H64.7284L64.6597 78.9959C59.7297 78.6958 53.6876 76.0443 49.7646 73.4074C44.5819 69.9235 40.3111 64.8054 41.0927 58.6333L41.3029 56.9726L44.9693 56.9662L45.1866 58.6262C45.304 59.5244 45.5681 60.3942 45.9566 61.2259C47.1051 63.6844 49.2904 65.7284 51.5994 67.3198C54.8876 69.5856 60.0707 71.9122 64.1959 72.6097L66.8643 72.6313H171.627V71.6619L67.8881 71.5729C62.5703 71.5685 56.751 68.8858 52.7396 65.8443C48.8853 62.9219 45.5906 58.8995 44.7907 54.2921C44.3612 51.8188 44.6912 49.3781 45.7435 47.0662C51.4764 34.4709 74.6327 33.5317 87.3018 34.0242L87.4924 34.0315L88.5478 31H98.8846L104.501 47.1352H105.146L106.784 31H125.671V51.5306H126.429V31H154.801V36.8448L157.275 31H166.24V34.1622C166.552 33.6333 166.962 33.1441 167.468 32.7024C168.828 31.5186 170.55 31 172.415 31H185V35.9586L182.644 38.3756H175.086V46.8572H185V51.5306ZM156.5 51.5306L154.801 47.9983V51.5306H156.5ZM116.058 51.5306V38.3756H115.436L114.529 48.0617C114.412 49.3137 114.05 50.5095 113.338 51.5306H116.058ZM95.6598 51.5306L95.2836 50.06H92.1487L91.7724 51.5306H95.6598ZM81.8941 51.5306V50.1148L83.5356 45.3992L83.5012 45.412C80.1278 46.6697 75.8149 48.4077 72.6141 50.4335C73.3574 51.0168 74.3483 51.3661 75.2974 51.4719L76.3897 51.5306H81.8941ZM165.488 36.625L162.238 42.4481L165.474 47.8756V37.0526C165.474 36.9087 165.479 36.7661 165.488 36.625ZM145.189 46.8572V36.5888L143.447 38.3756H136.042V38.7894H143.057V46.165H136.042V46.8572H145.189Z" fill="#FEFEFE"/>
<path d="M64.697 74.2598C59.2187 73.335 45.2885 67.7281 44.0777 58C42.7685 68.8706 58.3443 76.5422 65.4986 77H176V74.2863V70.6546H173.203V74.2863H67.5435L64.7444 74.2628C64.7264 74.2624 64.715 74.2624 64.697 74.2598Z" fill="#ED3237"/>
<path d="M77.0194 43.3953C70.9056 45.7569 65.5437 48.8403 67.3584 52C69.1247 48.7485 76.9583 45.4169 83.1968 43.1996L84 41C81.6257 41.7794 79.4552 42.4997 78.7969 42.7352L77.0194 43.3953Z" fill="#ED3237"/>
<path d="M75.1831 53.0295C71.9845 52.7073 69.5153 50.6404 69.5035 48.1347C69.4768 47.8024 69.5212 47.4717 69.6297 47.1436C70.5831 43.5196 79.5784 40.1809 86.4347 38.1547L87.1676 36.0915C76.3248 35.6784 53.2757 36.2062 47.9694 47.6321C42.9784 58.3808 58.4099 68.8952 68.0235 68.9044L182 69V53.0926H76.3839L75.1831 53.0295Z" fill="#4B4B4D"/>
<path fill-rule="evenodd" clip-rule="evenodd" d="M108.992 67H111.674V66.299L107.851 56H103.822L100 66.299V67H102.682L103.374 64.4638H108.3L108.992 67ZM107.846 63.1011H103.828L105.357 57.8698H106.317L107.846 63.1011ZM122.913 57.3626L123.434 56.8607V56H117.103C116.369 56 115.696 56.1633 115.158 56.6029C114.651 57.0167 114.429 57.5216 114.429 58.1184V64.8814C114.429 65.4782 114.651 65.9833 115.158 66.3971C115.696 66.8367 116.369 67 117.103 67H123.434V65.6374H118.191C117.87 65.6374 117.579 65.5409 117.351 65.3459C117.123 65.1513 117.01 64.9022 117.01 64.6279V58.3721C117.01 58.0975 117.123 57.8489 117.351 57.6538C117.579 57.4591 117.87 57.3626 118.191 57.3626H122.913ZM125.399 57.3626H129.254V67H131.835V57.3626H135.168L135.689 56.8607V56H125.399V57.3626ZM146.448 67H149.13V66.299L145.308 56H141.279L137.457 66.299V67H140.139L140.83 64.4638H145.756L146.448 67ZM145.302 63.1011H141.284L142.813 57.8698H143.773L145.302 63.1011ZM154.862 67V62.1812H159.594V67H162.176V56H159.594V60.8188H154.862V56H152.281V67H154.862ZM174.318 67H177V66.299L173.178 56H169.149L165.327 66.299V67H168.008L168.7 64.4638H173.626L174.318 67ZM173.172 63.1011H169.154L170.683 57.8698H171.643L173.172 63.1011Z" fill="#FEFEFE"/>
<path d="M97.8921 51.7323L96.835 47.7185H90.493L89.436 51.7323H84V49.8592L90.04 33H97.2881L103.328 49.8592V51.7323H97.8921ZM95.778 44.2393L93.8149 37.2817H93.5129L91.5498 44.2393H95.778ZM104.385 48.5211H105.744C106.046 48.5211 106.313 48.4141 106.544 48.2C106.776 47.986 106.912 47.7359 106.952 47.4505L108.462 33H123.26V51.7323H117.824V36.4789H113.294L112.237 47.4505C112.096 48.967 111.512 50.1045 110.486 50.8626C109.459 51.6209 107.878 52 105.744 52H104.385V48.5211ZM143.193 33V35.2747L141.985 36.4789H133.528V40.4929H140.474V43.9718H133.528V48.2536H143.193V51.7323H128.092V33H143.193ZM152.102 51.7323H146.666V33H152.102V40.6268H154.669L157.991 33H163.427V34.8734L159.199 42.2323L163.88 49.8592V51.7323H158.444L154.669 44.1055H152.102V51.7323ZM173.242 48.2536H182V51.7323H171.581C170.151 51.7323 168.989 51.3532 168.093 50.5951C167.197 49.8368 166.749 48.8778 166.749 47.7185V37.0142C166.749 35.8545 167.197 34.8957 168.093 34.1374C168.989 33.3793 170.151 33 171.581 33H182V35.2747L180.792 36.4789H173.242C172.94 36.4789 172.688 36.5679 172.487 36.7464C172.286 36.925 172.185 37.1479 172.185 37.4156V47.3169C172.185 47.5844 172.286 47.8074 172.487 47.986C172.688 48.1644 172.94 48.2536 173.242 48.2536Z" fill="#952D2D"/>
<path fill-rule="evenodd" clip-rule="evenodd" d="M98.7881 51.7196H103.345V50.2816L97.4378 33H90.9076L85 50.2816V51.7196H89.5573L90.614 47.5136H97.7313L98.7881 51.7196ZM96.9129 44.777H91.4325L93.6398 36.5778H94.7056L96.9129 44.777ZM105.381 49.2636V52H106.25C107.704 52 109.515 51.8129 110.678 50.9136C111.734 50.0961 112.141 48.8841 112.254 47.6489L113.349 35.7366H118.817V51.7196H123.273V33H109.414L107.944 47.7366L107.943 47.7442C107.889 48.1447 107.704 48.4956 107.404 48.787C107.092 49.0886 106.702 49.2636 106.25 49.2636H105.381ZM143.201 33H129.083V51.7196H143.201V48.9833H133.539V43.5879H140.484V40.8515H133.539V35.7366H142.263L143.201 34.7564V33ZM152.108 51.7196V43.7281H155.484L159.258 51.7196H163.884V50.3267L159.14 42.2266L163.431 34.3997V33H158.821L155.5 40.9917H152.108V33H147.652V51.7196H152.108ZM181.062 35.7366L182 34.7564V33H172.073C170.883 33 169.794 33.2939 168.923 34.0662C168.098 34.7973 167.731 35.6968 167.731 36.7518V47.9677C167.731 49.0228 168.099 49.9224 168.923 50.6536C169.794 51.4257 170.883 51.7196 172.073 51.7196H182V48.9833H173.733C173.311 48.9833 172.932 48.8478 172.632 48.5697C172.333 48.2914 172.187 47.939 172.187 47.5473V37.1724C172.187 36.7807 172.333 36.4283 172.632 36.1498C172.932 35.8717 173.311 35.7366 173.733 35.7366H181.062Z" fill="#ED3237"/>
<path fill-rule="evenodd" clip-rule="evenodd" d="M98.7881 51.7097H103.345V50.2215L100.96 43H96.5164L96.9129 44.5243H91.4325L91.829 43H87.3851L85 50.2215V51.7097H89.5573L90.614 47.3566H97.7313L98.7881 51.7097ZM105.381 49.1678V52H106.25C107.704 52 109.515 51.8063 110.678 50.8756C111.734 50.0295 112.141 48.7751 112.254 47.4967L112.654 43H108.386L107.944 47.5875L107.943 47.5953C107.889 48.0098 107.704 48.373 107.404 48.6746C107.092 48.9868 106.702 49.1678 106.25 49.1678H105.381ZM118.817 43V51.7097H123.273V43H118.817ZM129.083 43V51.7097H143.201V48.8777H133.539V43.2936H140.484V43H129.083ZM152.108 51.7097V43.4386H155.484L159.258 51.7097H163.884V50.2681L159.771 43H147.652V51.7097H152.108ZM167.731 43V47.8267C167.731 48.9186 168.099 49.8497 168.923 50.6065C169.794 51.4056 170.883 51.7097 172.073 51.7097H182V48.8777H173.733C173.311 48.8777 172.932 48.7375 172.632 48.4497C172.333 48.1617 172.187 47.7969 172.187 47.3915V43H167.731Z" fill="url(#paint0_linear)"/>
<path d="M73.0672 40.0655L73.2614 40.0127L73.5735 39.9294L73.8892 39.8471L74.208 39.7654L74.5299 39.6846L74.8554 39.6049L75.1843 39.5258L75.5164 39.4477L75.8515 39.3706L76.1904 39.2945L76.5324 39.2192L76.8779 39.145L77.2268 39.0714L77.5789 38.999L77.9345 38.9276L78.2934 38.8571L78.6557 38.7877L79.0214 38.7191L79.173 38.6914L79.5027 38.0194L75.8116 38.082L75.5119 38.1497L75.1693 38.2285L74.8302 38.3083L74.4944 38.3887L74.1616 38.4702L73.8321 38.5529L73.5059 38.6364L73.1829 38.7209L72.8633 38.8062L72.6692 38.8591L73.0672 40.0655ZM79.5063 38.0124L79.5121 38.0004L79.5059 38L79.5063 38.0124ZM100 60.745L99.9991 60.8178L99.5877 62L92.1984 61.9329L92.214 60.6737L100 60.745ZM85.2508 60.6027L85.235 61.862L78.2718 61.7908L78.2874 60.5319L85.2508 60.6027ZM71.4081 60.2927L71.1772 60.2684L70.9405 60.2417L70.7058 60.2139L70.4731 60.1847L70.242 60.1542L70.0127 60.1222L69.7853 60.0892L69.56 60.0546L69.3363 60.0189L69.1145 59.9821L68.8947 59.9439L68.6766 59.9042L68.4606 59.8635L68.2464 59.8216L68.0339 59.7783L67.8237 59.7341L67.6153 59.6884L67.4086 59.6415L67.2042 59.5938L67.0014 59.5446L66.8008 59.4945L66.6019 59.4429L66.4051 59.3905L66.2103 59.3368L66.0174 59.2821L65.8266 59.2264L65.6377 59.1694L65.4507 59.1115L65.2658 59.0527L65.0827 58.9925L64.9021 58.9316L64.8145 58.9011L64.3094 60.0745L64.4089 60.1089L64.6017 60.1742L64.7966 60.238L64.9932 60.3009L65.1917 60.3623L65.3921 60.4227L65.5948 60.482L65.799 60.54L66.0053 60.5967L66.2133 60.6521L66.4234 60.7064L66.6355 60.7593L66.8491 60.8114L67.0648 60.8616L67.2823 60.9112L67.5018 60.9591L67.7229 61.0056L67.946 61.0509L68.1708 61.0951L68.3977 61.1377L68.6262 61.1795L68.8566 61.2192L69.0888 61.2579L69.3228 61.2956L69.5586 61.3316L69.796 61.3661L70.0356 61.3993L70.2765 61.4312L70.5195 61.4618L70.7642 61.4907L71.0107 61.5184L71.2416 61.5426L71.4081 60.2927ZM59.2917 55.6891C58.0166 54.3848 57.2867 52.9183 57.4064 51.1553C57.4285 50.9059 57.4626 50.6716 57.5162 50.426L56.1518 50.1724C55.6316 52.5724 56.4775 54.7118 58.2414 56.5158L59.2917 55.6891ZM60.9799 45.5629L61.1148 45.4557L61.2591 45.3436L61.4059 45.232L61.5558 45.1204L61.7085 45.0089L61.8644 44.8978L62.023 44.7872L62.1849 44.6765L62.3492 44.5663L62.5171 44.4565L62.6878 44.3466L62.8612 44.2374L63.038 44.1284L63.2176 44.0197L63.4003 43.9114L63.586 43.8036L63.7747 43.6958L63.9665 43.5888L64.1613 43.482L64.359 43.3759L64.5602 43.2698L64.7643 43.1644L64.9713 43.0594L65.1815 42.955L65.3948 42.8508L65.6111 42.7474L65.8306 42.6445L66.0531 42.5422L66.279 42.4399L66.5075 42.3385L66.6666 42.2694L66.0674 41.1326L65.8993 41.2058L65.6609 41.3115L65.4257 41.4178L65.1937 41.5247L64.9644 41.6321L64.7382 41.7405L64.5151 41.8493L64.2952 41.9587L64.0781 42.0686L63.8639 42.1794L63.6529 42.2906L63.4449 42.4022L63.2397 42.5146L63.0374 42.6279L62.8382 42.7412L62.6419 42.8554L62.4487 42.9699L62.2583 43.085L62.0707 43.2008L61.8862 43.3169L61.7047 43.4336L61.526 43.5508L61.3502 43.6687L61.1775 43.7867L61.0075 43.9054L60.8404 44.0245L60.6762 44.1442L60.5147 44.2642L60.3563 44.3848L60.201 44.5055L60.0661 44.613L60.9799 45.5629Z" fill="#FEFEFE"/>
<defs>
<linearGradient id="paint0_linear" x1="132" y1="52" x2="132" y2="43" gradientUnits="userSpaceOnUse">
<stop stop-color="#AD3730"/>
<stop offset="1" stop-color="#AD3730" stop-opacity="0"/>
</linearGradient>
</defs>
</svg>
